<svg width="36" height="28" viewBox="0 0 36 28" fill="none" xmlns="http://www.w3.org/2000/svg">
<mask id="mask0_131_3780" style="mask-type:alpha" maskUnits="userSpaceOnUse" x="0" y="0" width="36" height="28">
<path d="M36 0H0V27.4286H36V0Z" fill="white"/>
</mask>
<g mask="url(#mask0_131_3780)">
<mask id="mask1_131_3780" style="mask-type:alpha" maskUnits="userSpaceOnUse" x="0" y="7" width="4" height="4">
<path d="M0 7.51372V10.0209H3.25543V7.51372H0Z" fill="white"/>
</mask>
<g mask="url(#mask1_131_3780)">
<path fill-rule="evenodd" clip-rule="evenodd" d="M3.25591 8.76715C3.25591 8.08326 2.6746 7.51344 1.97693 7.51344H1.27926C0.581581 7.51344 0 8.08326 0 8.76715C0 9.45104 0.581581 10.0209 1.27926 10.0209H1.97693C2.6746 10.0209 3.25591 9.45104 3.25591 8.76715Z" fill="white"/>
</g>
<mask id="mask2_131_3780" style="mask-type:alpha" maskUnits="userSpaceOnUse" x="4" y="1" width="32" height="26">
<path d="M4.30273 26.3083H35.9836V1.13057H4.30273V26.3083Z" fill="white"/>
</mask>
<g mask="url(#mask2_131_3780)">
<path fill-rule="evenodd" clip-rule="evenodd" d="M34.7679 8.42577C37.7911 14.6949 35.0004 22.2177 28.3725 25.1811C21.9773 28.0307 14.3029 25.2952 11.3959 19.0261C10.8145 17.7724 10.4657 16.4046 10.3493 15.0368H7.79111C7.09343 15.0368 6.51213 14.4667 6.51213 13.7828C6.51213 13.0989 7.09343 12.5291 7.79111 12.5291H11.5122C12.2099 12.5291 12.7912 11.9593 12.7912 11.2754C12.7912 10.5915 12.2099 10.0214 11.5122 10.0214H5.58199C4.88432 10.0214 4.30273 9.4516 4.30273 8.76771C4.30273 8.08382 4.88432 7.51401 5.58199 7.51401H13.8377C14.5354 7.51401 15.1167 6.94391 15.1167 6.26002C15.1167 5.57613 14.5354 5.00632 13.8377 5.00632H10.4657C9.4192 5.00632 8.48878 4.20835 8.48878 3.06872C8.48878 2.04288 9.30283 1.13084 10.4657 1.13084H23.6052C28.2564 1.35899 32.6749 3.98048 34.7679 8.42577ZM20.0726 7.16845C16.3959 8.82346 14.7837 13.0868 16.4721 16.6909C18.1604 20.295 22.5097 21.8754 26.1865 20.2204C29.8635 18.5653 31.4754 14.302 29.7871 10.6979C28.0987 7.09377 23.7494 5.51343 20.0726 7.16845Z" fill="white"/>
</g>
</g>
<circle cx="23.1431" cy="13.7143" r="4.28571" fill="white"/>
</svg>
